<?xml version="1.0" standalone="no"?>
<!DOCTYPE svg PUBLIC "-//W3C//DTD SVG 20010904//EN"
 "http://www.w3.org/TR/2001/REC-SVG-20010904/DTD/svg10.dtd">
<svg version="1.0" xmlns="http://www.w3.org/2000/svg"
 width="300.000000pt" height="119.000000pt" viewBox="0 0 300.000000 119.000000"
 preserveAspectRatio="xMidYMid meet">
<metadata>
Created by potrace 1.10, written by Peter Selinger 2001-2011
</metadata>
<g transform="translate(0.000000,119.000000) scale(0.100000,-0.100000)"
fill="#ffe59a" stroke="none">
<path d="M150 1129 c-14 -6 -36 -20 -48 -32 -53 -49 -52 -45 -53 -511 0 -244
4 -444 10 -457 5 -13 19 -35 31 -48 48 -49 62 -51 467 -51 363 0 378 1 420 21
30 15 50 33 64 60 19 38 19 56 17 483 -3 431 -4 445 -24 472 -11 15 -33 37
-48 48 -27 20 -41 21 -419 23 -247 1 -401 -2 -417 -8z m558 -175 c95 -31 144
-103 150 -221 6 -98 -17 -163 -76 -220 l-44 -43 51 -115 c55 -125 61 -150 33
-157 -40 -11 -136 1 -152 19 -9 10 -37 64 -61 121 l-43 102 -58 0 -58 0 0
-112 c0 -136 -7 -148 -87 -148 -40 0 -58 5 -73 20 -19 19 -20 33 -20 383 0
269 3 366 12 375 20 20 363 16 426 -4z"/>
<path d="M450 710 l0 -100 84 0 c74 0 88 3 111 23 22 18 27 31 27 69 0 88 -28
108 -148 108 l-74 0 0 -100z"/>
<path d="M1180 885 l0 -255 140 0 140 0 0 40 0 40 -74 0 c-104 0 -106 1 -106
71 l0 59 75 0 75 0 0 40 0 39 -72 3 -73 3 -3 63 -3 62 91 0 90 0 0 45 0 45
-140 0 -140 0 0 -255z"/>
<path d="M1544 1125 c-3 -6 -3 -118 -2 -250 l3 -240 48 -3 47 -3 0 152 c0 122
3 149 13 141 7 -6 44 -74 81 -151 l69 -141 49 0 48 0 0 250 0 250 -45 0 -45 0
0 -150 c0 -82 -3 -150 -7 -150 -5 0 -41 67 -82 149 l-75 149 -49 4 c-28 2 -51
-2 -53 -7z"/>
<path d="M2350 1129 c0 -10 57 -263 97 -432 l16 -68 56 3 55 3 34 165 c18 90
35 166 38 169 9 9 15 -10 44 -150 17 -79 32 -154 35 -166 5 -20 12 -23 60 -23
l54 0 10 38 c22 83 101 445 101 462 0 5 -21 10 -48 10 l-49 0 -11 -62 c-6 -35
-19 -114 -29 -175 -17 -106 -27 -131 -39 -100 -2 7 -20 83 -38 167 -30 142
-35 155 -57 160 -13 3 -36 4 -51 2 -32 -5 -32 -5 -73 -202 -25 -122 -39 -159
-49 -129 -2 8 -16 84 -31 169 -15 85 -29 158 -31 162 -8 12 -94 9 -94 -3z"/>
<path d="M2007 1123 c-4 -7 -2 -460 2 -485 1 -5 64 -8 141 -8 l140 0 0 40 c0
46 -5 48 -115 52 l-70 3 0 55 0 55 73 3 72 3 0 39 0 39 -72 3 -73 3 0 60 0 60
93 3 92 3 0 39 0 40 -139 0 c-77 0 -142 -3 -144 -7z"/>
<path d="M1264 522 c-30 -15 -47 -31 -62 -63 -39 -83 -36 -303 6 -358 32 -43
78 -64 142 -64 94 0 149 45 165 136 l7 37 -50 0 c-49 0 -50 -1 -56 -35 -11
-55 -76 -75 -116 -35 -18 18 -20 33 -20 143 0 140 10 167 61 167 45 0 67 -16
75 -55 6 -34 7 -35 56 -35 l50 0 -7 37 c-16 89 -64 133 -153 139 -42 4 -67 0
-98 -14z"/>
<path d="M2081 522 c-69 -34 -97 -113 -68 -184 19 -45 51 -67 130 -87 51 -14
64 -22 76 -46 12 -25 12 -32 0 -54 -27 -48 -103 -40 -117 12 -8 30 -12 32 -55
35 l-47 3 0 -39 c0 -76 64 -124 165 -125 75 -1 124 26 150 80 20 42 15 118
-10 157 -18 27 -100 66 -139 66 -31 0 -66 32 -66 60 0 33 37 63 68 55 36 -9
52 -23 52 -46 0 -16 8 -19 50 -19 47 0 50 2 50 25 0 15 -7 40 -16 56 -31 61
-151 88 -223 51z"/>
<path d="M1665 423 c-15 -60 -42 -164 -61 -233 -19 -69 -34 -131 -34 -138 0
-9 13 -12 47 -10 44 3 48 5 54 35 10 53 25 63 88 63 31 0 61 -4 67 -8 6 -4 15
-25 20 -47 9 -39 11 -40 57 -43 32 -2 47 1 47 9 0 7 -28 117 -62 246 l-61 233
-67 0 -67 0 -28 -107z m111 -40 c4 -16 13 -53 20 -83 21 -80 21 -80 -36 -80
-38 0 -50 4 -50 15 0 14 25 127 36 163 6 21 23 13 30 -15z"/>
<path d="M2382 488 l3 -43 50 -5 50 -5 3 -198 2 -198 48 3 47 3 3 198 2 197
50 0 50 0 0 45 0 45 -156 0 -155 0 3 -42z"/>
</g>
</svg>
