 <svg  version="1.0" xmlns="http://www.w3.org/2000/svg"  width="300.000000pt" height="59.000000pt" viewBox="0 0 300.000000 59.000000"  preserveAspectRatio="xMidYMid meet">  <g transform="translate(0.000000,59.000000) scale(0.100000,-0.100000)" fill="#ffe59a" stroke="none"> <path d="M44 539 c-17 -19 -19 -41 -22 -227 -3 -221 2 -251 44 -271 26 -12 350 -16 392 -5 45 13 52 47 52 267 0 192 -1 206 -21 231 l-20 26 -203 0 c-193 0 -204 -1 -222 -21z m313 -69 c73 -44 83 -141 22 -206 l-20 -22 25 -61 c14 -33 26 -63 26 -66 0 -3 -20 -5 -46 -5 l-45 0 -24 55 c-14 30 -29 56 -35 57 -33 4 -35 1 -40 -57 l-5 -60 -35 -3 c-56 -6 -60 9 -60 198 0 116 4 170 12 178 8 8 45 12 103 12 72 0 97 -4 122 -20z"/> <path d="M220 355 c0 -44 1 -45 31 -45 42 0 69 17 69 43 0 33 -19 47 -62 47 l-38 0 0 -45z"/> <path d="M560 295 l0 -175 100 0 c99 0 100 0 100 25 0 23 -4 24 -62 27 l-63 3 0 45 0 45 53 3 c48 3 52 5 52 28 0 23 -3 24 -56 24 l-55 0 3 48 3 47 63 3 c58 3 62 4 62 27 0 25 -1 25 -100 25 l-100 0 0 -175z"/> <path d="M820 295 l0 -175 30 0 30 0 0 99 c0 55 4 102 10 106 5 3 32 -42 60 -100 50 -103 52 -105 86 -105 l34 0 0 175 0 175 -30 0 -30 0 0 -105 c0 -58 -3 -105 -8 -105 -4 0 -31 47 -60 105 -51 103 -52 105 -87 105 l-35 0 0 -175z"/> <path d="M1150 295 l0 -176 98 3 c89 3 97 5 97 23 0 18 -8 20 -61 23 l-62 3 -4 40 c-2 22 -2 42 1 45 2 2 26 4 53 4 47 0 48 1 48 30 0 29 -1 30 -50 30 -52 0 -52 1 -52 50 0 11 0 24 1 30 1 5 29 10 64 12 59 3 62 4 65 31 l3 27 -100 0 -101 0 0 -175z"/> <path d="M1394 453 c3 -10 19 -81 36 -158 17 -77 34 -148 36 -157 4 -13 16 -18 43 -18 l38 0 23 112 c33 163 34 163 70 -6 11 -55 23 -103 26 -108 7 -11 61 -10 69 2 7 11 75 317 75 337 0 10 -10 13 -32 11 l-32 -3 -19 -115 c-11 -63 -21 -117 -24 -120 -8 -9 -21 24 -33 84 -32 165 -28 156 -66 156 -40 0 -36 8 -65 -132 -12 -60 -25 -108 -30 -108 -10 0 -12 8 -35 143 l-16 97 -35 0 c-28 0 -33 -3 -29 -17z"/> <path d="M1927 459 c-35 -20 -51 -70 -52 -159 0 -136 31 -180 129 -180 57 0 94 30 103 83 5 36 5 37 -26 37 -24 0 -32 -5 -37 -25 -13 -51 -76 -57 -95 -8 -5 13 -9 53 -9 88 0 35 4 75 9 88 19 49 82 43 95 -8 5 -20 13 -25 36 -25 23 0 30 5 30 20 0 33 -23 71 -51 86 -32 16 -106 18 -132 3z"/> <path d="M2241 453 c-5 -10 -26 -83 -46 -163 -21 -80 -40 -151 -42 -158 -4 -8 6 -12 29 -12 30 0 35 4 43 33 9 30 13 32 62 35 51 3 52 3 61 -30 7 -28 13 -34 40 -36 18 -2 32 0 32 4 0 10 -67 267 -81 312 -10 29 -14 32 -49 32 -27 0 -42 -5 -49 -17z m68 -125 c17 -73 16 -78 -24 -78 -39 0 -40 2 -24 68 21 90 28 92 48 10z"/> <path d="M2489 441 c-61 -61 -23 -147 75 -172 35 -9 48 -17 52 -34 15 -62 -57 -89 -84 -32 -10 20 -20 27 -43 27 -25 0 -29 -4 -29 -29 0 -44 49 -81 106 -81 85 0 134 50 120 123 -8 44 -30 63 -97 85 -42 13 -55 22 -57 40 -7 50 53 70 73 25 13 -31 75 -33 75 -4 0 52 -41 81 -115 81 -38 0 -52 -5 -76 -29z"/> <path d="M2730 435 c0 -21 5 -25 29 -25 46 0 52 -17 51 -147 -1 -65 -1 -124 -1 -131 1 -9 11 -12 29 -10 l27 3 5 140 5 140 33 3 c26 3 32 7 32 28 0 24 0 24 -105 24 l-105 0 0 -25z"/> </g> </svg> 